<svg width="60" height="52" viewBox="0 0 60 52" fill="none" xmlns="http://www.w3.org/2000/svg">
<path d="M35.8333 23.0833H32.9167V20.1667C32.9167 19.3931 32.6094 18.6512 32.0624 18.1043C31.5154 17.5573 30.7735 17.25 30 17.25C29.2264 17.25 28.4846 17.5573 27.9376 18.1043C27.3906 18.6512 27.0833 19.3931 27.0833 20.1667V23.0833H24.1667C23.3931 23.0833 22.6512 23.3906 22.1043 23.9376C21.5573 24.4846 21.25 25.2264 21.25 26C21.25 26.7735 21.5573 27.5154 22.1043 28.0624C22.6512 28.6094 23.3931 28.9167 24.1667 28.9167H27.0833V31.8333C27.0833 32.6069 27.3906 33.3487 27.9376 33.8957C28.4846 34.4427 29.2264 34.75 30 34.75C30.7735 34.75 31.5154 34.4427 32.0624 33.8957C32.6094 33.3487 32.9167 32.6069 32.9167 31.8333V28.9167H35.8333C36.6069 28.9167 37.3487 28.6094 37.8957 28.0624C38.4427 27.5154 38.75 26.7735 38.75 26C38.75 25.2264 38.4427 24.4846 37.8957 23.9376C37.3487 23.3906 36.6069 23.0833 35.8333 23.0833ZM53.8 5.58333C50.6899 2.50538 46.5822 0.640367 42.218 0.324816C37.8538 0.00926541 33.5205 1.26396 30 3.86249C26.289 1.10227 21.67 -0.149348 17.0731 0.359687C12.4762 0.868721 8.24294 3.1006 5.22575 6.60587C2.20855 10.1111 0.631555 14.6294 0.812326 19.2509C0.993098 23.8723 2.91821 28.2536 6.19999 31.5125L23.7 49.1583C25.3406 50.7969 27.5646 51.7173 29.8833 51.7173C32.2021 51.7173 34.426 50.7969 36.0667 49.1583L53.5667 31.5125C55.2902 29.8286 56.664 27.8206 57.609 25.604C58.554 23.3874 59.0517 21.0059 59.0734 18.5964C59.0951 16.1869 58.6403 13.7968 57.7353 11.5636C56.8304 9.33038 55.493 7.29802 53.8 5.58333ZM49.6875 27.3417L32.1875 44.8417C31.9163 45.115 31.5938 45.332 31.2383 45.4801C30.8829 45.6282 30.5017 45.7044 30.1167 45.7044C29.7316 45.7044 29.3504 45.6282 28.995 45.4801C28.6395 45.332 28.317 45.115 28.0458 44.8417L10.5458 27.3417C8.25845 25.0035 6.9776 21.8626 6.9776 18.5917C6.9776 15.3207 8.25845 12.1798 10.5458 9.84166C12.8767 7.54038 16.0203 6.24999 19.2958 6.24999C22.5713 6.24999 25.715 7.54038 28.0458 9.84166C28.317 10.115 28.6395 10.332 28.995 10.4801C29.3504 10.6282 29.7316 10.7044 30.1167 10.7044C30.5017 10.7044 30.8829 10.6282 31.2383 10.4801C31.5938 10.332 31.9163 10.115 32.1875 9.84166C34.5184 7.54038 37.662 6.24999 40.9375 6.24999C44.213 6.24999 47.3566 7.54038 49.6875 9.84166C51.9924 12.1824 53.2843 15.3357 53.2843 18.6208C53.2843 21.9059 51.9924 25.0592 49.6875 27.4V27.3417Z" fill="white"/>
</svg>
